<?xml version="1.0" encoding="utf-8"?>
<!-- Generator: Adobe Illustrator 25.1.0, SVG Export Plug-In . SVG Version: 6.00 Build 0)  -->
<svg version="1.1" xmlns="http://www.w3.org/2000/svg" xmlns:xlink="http://www.w3.org/1999/xlink" x="0px" y="0px"
	 viewBox="0 0 2088.64 355.56" style="enable-background:new 0 0 2088.64 355.56;" xml:space="preserve">
<style type="text/css">
	.st0{fill:#000090;}
	.st1{fill:#2DC6D6;}
	.st2{fill:#000099;}
</style>
<g id="TUHH">
	<g id="Subtitle_1_">
		<path class="st0" d="M1107.27,290.59h5.54l-4.29,21.49h23.81l4.29-21.49h5.54l-9.63,48.45H1127l4.55-22.75h-23.81l-4.55,22.75
			h-5.54L1107.27,290.59z"/>
		<path class="st0" d="M1149.29,308.65c5.87-3.78,9.89-5.46,14.51-5.46c4.35,0,7.72,1.68,7.72,7c0,1.4-0.26,3.43-1.25,7.7
			c-0.99,4.34-3.17,14.56-3.17,16.38c0,0.98,0.66,1.54,1.32,1.54c0.73,0,1.65-0.42,3.1-1.4l1.32,2.45
			c-3.23,2.38-5.28,3.15-6.93,3.15c-3.17,0-3.56-2.52-3.56-5.39c-2.64,3.15-5.74,5.39-9.89,5.39c-5.34,0-8.71-3.64-8.71-9.17
			c0-10.64,13.92-12.81,21.57-13.65c0.46-1.96,0.92-4.83,0.92-6.23c0-2.73-1.65-3.57-3.89-3.57c-2.7,0-7.85,2.45-10.88,4.76
			L1149.29,308.65z M1154.04,335.81c3.03,0,4.88-1.33,8.51-5.11c0.46-3.01,1.25-6.72,2.04-10.08c-9.9,1.33-15.57,4.69-15.57,9.8
			C1149.03,333.5,1151,335.81,1154.04,335.81z"/>
		<path class="st0" d="M1184.18,304.17h5.28l-1.58,6.09h0.13c4.09-3.85,8.64-7.07,13.06-7.07c4.35,0,6.2,2.38,6.27,7.07
			c4.02-3.85,8.58-7.07,12.99-7.07c4.22,0,6.6,2.66,6.6,6.58c0,1.75-0.07,3.29-0.59,5.88l-4.62,23.38h-5.28l4.35-22.05
			c0.59-2.87,0.86-4.76,0.86-6.02c0-2.59-1.39-3.57-3.03-3.57c-2.7,0-5.34,1.82-11.68,7.35l-4.82,24.29h-5.28l4.35-22.05
			c0.59-2.87,0.86-4.76,0.86-6.02c0-2.59-1.38-3.57-3.03-3.57c-2.7,0-5.34,1.82-11.68,7.35l-4.82,24.29h-5.28L1184.18,304.17z"/>
		<path class="st0" d="M1242.63,287.09h5.28l-4.62,22.68h0.13c3.17-3.99,6.33-6.58,10.95-6.58c7.26,0,10.16,5.95,10.16,12.11
			c0,7.21-4.88,24.15-23.75,24.15c-2.64,0-5.54-0.14-8.51-0.42L1242.63,287.09z M1238.21,335.67h3.96
			c10.16,0,17.08-9.73,17.08-20.02c0-4.62-2.04-7.84-6.27-7.84c-2.97,0-5.87,1.61-10.55,6.65L1238.21,335.67z"/>
		<path class="st0" d="M1275.74,304.17h5.28l-4.35,21.7c-0.66,3.15-0.92,4.76-0.92,6.37c0,2.59,1.65,3.57,4.02,3.57
			c2.77,0,6.53-2.52,11.94-7.91l4.82-23.73h5.28l-6.93,34.86h-5.28l1.65-6.72l-0.13-0.14c-3.23,3.92-8.51,7.84-13.46,7.84
			c-3.69,0-7.19-1.96-7.19-6.37c0-1.96,0.26-3.92,0.79-6.72L1275.74,304.17z"/>
		<path class="st0" d="M1312.55,304.17h5.01l-1.65,6.09l0.13,0.14c2.9-4.69,5.54-7.21,9.3-7.21c1.06,0,2.18,0.21,3.23,0.49
			l-1.32,5.04c-1.06-0.28-2.11-0.49-3.17-0.49c-3.23,0-6.2,3.08-8.38,7.07l-4.82,23.73h-5.28L1312.55,304.17z"/>
		<path class="st0" d="M1346.12,334.34c5.87,1.75,8.77,5.11,8.77,9.45c0,5.88-6.93,11.76-16.29,11.76c-5.47,0-13.26-2.66-13.26-9.03
			c0-4.83,2.51-7.77,9.76-10.85v-0.14c-7.06-1.82-7.59-3.22-7.59-4.41c0-1.54,0.79-3.08,8.84-6.72c-2.7-1.75-4.29-4.55-4.29-8.12
			c0-7.42,5.81-13.09,12.53-13.09c2.11,0,4.22,0.63,6.07,1.4l9.7-0.42l-0.66,3.5l-6.79-0.28c1.72,1.82,2.31,4.34,2.31,6.93
			c0,6.23-5.15,12.25-12.2,12.25c-1.65,0-3.03-0.21-4.35-0.77c-4.16,2.03-5.08,2.94-5.08,3.78c0,0.7,0.33,1.12,4.35,2.31
			L1346.12,334.34z M1338.34,336.58c-6.07,3.22-8.64,5.81-8.64,9.24c0,3.15,3.63,6.37,9.23,6.37c6.66,0,10.69-4.13,10.69-8.05
			c0-2.45-0.99-4.13-4.42-5.25L1338.34,336.58z M1342.89,323.21c5.15,0,7.59-5.18,7.59-10.15c0-4.06-2.31-6.51-6.07-6.51
			c-4.55,0-7.59,5.6-7.59,9.8C1336.82,320.62,1338.8,323.21,1342.89,323.21z"/>
		<path class="st0" d="M1418.88,290.59h5.54l-6.53,32.48c-2.18,10.71-8.05,16.94-19.26,16.94c-9.63,0-15.7-5.11-15.7-14.14
			c0-2.59,0.59-5.67,2.18-13.44l4.42-21.84h5.54l-4.82,23.87c-1.45,7.14-1.65,9.66-1.65,11.34c0,5.18,3.23,9.59,10.62,9.59
			c9.17,0,11.81-5.81,13.92-16.31L1418.88,290.59z"/>
		<path class="st0" d="M1433.46,304.17h5.28l-1.65,6.72l0.13,0.14c3.23-3.92,8.51-7.84,13.46-7.84c3.69,0,7.19,1.96,7.19,6.37
			c0,1.96-0.26,3.92-0.79,6.72l-4.49,22.75h-5.28l4.35-21.7c0.66-3.15,0.92-4.76,0.92-6.37c0-2.59-1.65-3.57-4.02-3.57
			c-2.77,0-6.53,2.52-11.94,7.91l-4.82,23.73h-5.28L1433.46,304.17z"/>
		<path class="st0" d="M1471.26,304.17h5.28l-6.93,34.86h-5.28L1471.26,304.17z M1473.89,290.59h5.28l-1.19,5.88h-5.28
			L1473.89,290.59z"/>
		<path class="st0" d="M1483.52,304.59l5.28-1.4l5.08,28.7l15.37-28.7l4.49,2.03l-18.6,33.81h-4.55L1483.52,304.59z"/>
		<path class="st0" d="M1521.32,321.53c-0.26,1.47-0.4,2.66-0.4,3.99c0,5.11,2.11,10.29,8.11,10.29c3.69,0,7.26-1.89,9.89-4.27
			l1.85,3.36c-3.3,2.59-7.65,5.11-12.34,5.11c-8.51,0-12.8-6.16-12.8-14.91c0-10.01,7.26-21.91,17.68-21.91
			c7.52,0,10.22,6.3,10.22,13.3c0,1.68-0.2,3.36-0.33,5.04H1521.32z M1538.67,317.75c0.07-0.84,0.13-1.75,0.13-2.66
			c0-4.2-1.19-8.12-6.13-8.12c-5.21,0-8.77,5.95-10.55,10.78H1538.67z"/>
		<path class="st0" d="M1554.44,304.17h5.01l-1.65,6.09l0.13,0.14c2.9-4.69,5.54-7.21,9.3-7.21c1.06,0,2.18,0.21,3.23,0.49
			l-1.32,5.04c-1.06-0.28-2.11-0.49-3.17-0.49c-3.23,0-6.2,3.08-8.38,7.07l-4.82,23.73h-5.28L1554.44,304.17z"/>
		<path class="st0" d="M1569.41,334.62c2.18,1.12,4.42,1.61,6.86,1.61c3.69,0,8.05-1.54,8.05-6.44c0-6.79-12.14-5.81-12.14-15.75
			c0-6.3,4.88-10.85,13.39-10.85c2.84,0,5.34,0.49,7.85,1.4l-1.39,3.92c-2.24-0.7-4.55-1.12-6.33-1.12c-5.87,0-8.25,2.73-8.25,6.37
			c0,6.51,12.14,5.88,12.14,15.68c0,7-6.07,10.57-12.86,10.57c-3.43,0-6.33-0.49-8.84-1.82L1569.41,334.62z"/>
		<path class="st0" d="M1603.18,304.17h5.28l-6.93,34.86h-5.28L1603.18,304.17z M1605.82,290.59h5.28l-1.19,5.88h-5.28
			L1605.82,290.59z"/>
		<path class="st0" d="M1615.52,304.17h6.93l3.17-13.58h5.28l-3.17,13.58h7.59l-0.86,3.78h-7.59l-4.16,18.06
			c-0.59,2.59-0.92,4.69-0.92,5.95c0,2.24,1.19,3.85,3.36,3.85c1.45,0,3.36-0.7,6.07-2.66l1.45,3.22c-3.76,2.66-6.79,3.64-9.63,3.64
			c-4.02,0-6.53-3.01-6.53-7.07c0-2.8,0.72-6.16,1.65-10.08l3.43-14.91h-6.99L1615.52,304.17z"/>
		<path class="st0" d="M1644.41,338.33l-6.99-33.74l5.28-1.4l5.15,28.56l15.04-28.56l4.48,2.17l-19.59,36.19
			c-3.36,6.16-5.34,9.1-8.71,14l-3.69-1.19L1644.41,338.33z"/>
		<path class="st0" d="M1705.89,303.19c8.44,0,13.13,6.3,13.13,14.77c0,11.27-6.79,22.05-18.01,22.05c-8.44,0-13.13-6.3-13.13-14.77
			C1687.88,313.97,1694.67,303.19,1705.89,303.19z M1701.27,335.81c8.38,0,12.47-10.36,12.47-18.13c0-5.11-2.11-10.29-8.11-10.29
			c-8.38,0-12.47,10.36-12.47,18.13C1693.15,330.63,1695.27,335.81,1701.27,335.81z"/>
		<path class="st0" d="M1732.54,307.95h-6.66l0.73-3.78h6.66l1.12-5.6c1.39-7.07,3.76-11.48,11.48-11.48c0.99,0,1.85,0.07,2.77,0.21
			l-0.73,3.85c-0.73-0.21-1.52-0.28-2.37-0.28c-3.17,0-4.75,1.96-5.41,5.25l-1.58,8.05h7.78l-0.73,3.78h-7.85l-6.13,31.08h-5.28
			L1732.54,307.95z"/>
		<path class="st0" d="M1783.13,295.21h-14.64l0.92-4.62h33.84l-0.92,4.62h-13.66l-8.71,43.82h-5.54L1783.13,295.21z"/>
		<path class="st0" d="M1802.32,321.53c-0.26,1.47-0.4,2.66-0.4,3.99c0,5.11,2.11,10.29,8.11,10.29c3.69,0,7.26-1.89,9.89-4.27
			l1.85,3.36c-3.3,2.59-7.65,5.11-12.34,5.11c-8.51,0-12.8-6.16-12.8-14.91c0-10.01,7.26-21.91,17.68-21.91
			c7.52,0,10.22,6.3,10.22,13.3c0,1.68-0.2,3.36-0.33,5.04H1802.32z M1819.67,317.75c0.07-0.84,0.13-1.75,0.13-2.66
			c0-4.2-1.19-8.12-6.13-8.12c-5.21,0-8.77,5.95-10.55,10.78H1819.67z"/>
		<path class="st0" d="M1856.48,307.74c-1.12-0.21-1.85-0.35-3.76-0.35c-9.76,0-17.81,7.63-17.81,18.13
			c0,5.11,2.11,10.29,7.78,10.29c3.56,0,6.73-1.4,9.76-3.64l2.11,3.01c-3.1,2.31-7.45,4.83-12.14,4.83c-8.51,0-12.8-6.16-12.8-13.3
			c0-14.91,10.69-23.52,23.22-23.52c1.72,0,3.36,0.21,5.08,0.42L1856.48,307.74z"/>
		<path class="st0" d="M1868.16,287.09h5.28l-5.08,23.8l0.13,0.14c3.23-3.92,8.51-7.84,13.46-7.84c3.69,0,7.19,1.96,7.19,6.37
			c0,1.96-0.26,3.92-0.79,6.72l-4.49,22.75h-5.28l4.35-21.7c0.66-3.15,0.92-4.76,0.92-6.37c0-2.59-1.65-3.57-4.02-3.57
			c-2.77,0-6.53,2.52-11.94,7.91l-4.82,23.73h-5.28L1868.16,287.09z"/>
		<path class="st0" d="M1901.4,304.17h5.28l-1.65,6.72l0.13,0.14c3.23-3.92,8.51-7.84,13.46-7.84c3.69,0,7.19,1.96,7.19,6.37
			c0,1.96-0.26,3.92-0.79,6.72l-4.49,22.75h-5.28l4.35-21.7c0.66-3.15,0.92-4.76,0.92-6.37c0-2.59-1.65-3.57-4.02-3.57
			c-2.77,0-6.53,2.52-11.94,7.91l-4.82,23.73h-5.28L1901.4,304.17z"/>
		<path class="st0" d="M1950.28,303.19c8.44,0,13.13,6.3,13.13,14.77c0,11.27-6.79,22.05-18.01,22.05c-8.44,0-13.13-6.3-13.13-14.77
			C1932.27,313.97,1939.07,303.19,1950.28,303.19z M1945.66,335.81c8.38,0,12.47-10.36,12.47-18.13c0-5.11-2.11-10.29-8.11-10.29
			c-8.38,0-12.47,10.36-12.47,18.13C1937.55,330.63,1939.66,335.81,1945.66,335.81z"/>
		<path class="st0" d="M1979.3,287.09h5.28l-10.36,51.95h-5.28L1979.3,287.09z"/>
		<path class="st0" d="M2005.29,303.19c8.44,0,13.13,6.3,13.13,14.77c0,11.27-6.79,22.05-18.01,22.05c-8.44,0-13.13-6.3-13.13-14.77
			C1987.29,313.97,1994.08,303.19,2005.29,303.19z M2000.68,335.81c8.38,0,12.47-10.36,12.47-18.13c0-5.11-2.11-10.29-8.11-10.29
			c-8.38,0-12.47,10.36-12.47,18.13C1992.56,330.63,1994.67,335.81,2000.68,335.81z"/>
		<path class="st0" d="M2041.38,334.34c5.87,1.75,8.77,5.11,8.77,9.45c0,5.88-6.93,11.76-16.29,11.76c-5.47,0-13.26-2.66-13.26-9.03
			c0-4.83,2.51-7.77,9.76-10.85v-0.14c-7.06-1.82-7.59-3.22-7.59-4.41c0-1.54,0.79-3.08,8.84-6.72c-2.71-1.75-4.29-4.55-4.29-8.12
			c0-7.42,5.8-13.09,12.53-13.09c2.11,0,4.22,0.63,6.07,1.4l9.7-0.42l-0.66,3.5l-6.79-0.28c1.72,1.82,2.31,4.34,2.31,6.93
			c0,6.23-5.15,12.25-12.2,12.25c-1.65,0-3.03-0.21-4.35-0.77c-4.16,2.03-5.08,2.94-5.08,3.78c0,0.7,0.33,1.12,4.35,2.31
			L2041.38,334.34z M2033.59,336.58c-6.07,3.22-8.64,5.81-8.64,9.24c0,3.15,3.63,6.37,9.23,6.37c6.66,0,10.69-4.13,10.69-8.05
			c0-2.45-0.99-4.13-4.42-5.25L2033.59,336.58z M2038.14,323.21c5.15,0,7.59-5.18,7.59-10.15c0-4.06-2.31-6.51-6.07-6.51
			c-4.55,0-7.59,5.6-7.59,9.8C2032.07,320.62,2034.05,323.21,2038.14,323.21z"/>
		<path class="st0" d="M2064.79,338.33l-6.99-33.74l5.28-1.4l5.15,28.56l15.04-28.56l4.49,2.17l-19.59,36.19
			c-3.36,6.16-5.34,9.1-8.71,14l-3.69-1.19L2064.79,338.33z"/>
	</g>
	<g id="TUHH_1_">
		<path class="st1" d="M1599.62,0h65.18l-1.08,95.79h84.99L1750.15,0h65.18l-2.16,249.19h-65.18l1.44-99.39h-85.35l-1.44,99.39
			h-65.18L1599.62,0z"/>
		<path class="st1" d="M1872.94,0h65.18l-1.08,95.79h84.98L2023.46,0h65.18l-2.16,249.19h-65.18l1.44-99.39h-85.35l-1.44,99.39
			h-65.18L1872.94,0z"/>
		<path class="st1" d="M1397.96,0c-1.08,50.78-1.08,101.55-1.08,152.32c0,37.81,13.68,52.21,41.77,52.21
			c20.17,0,42.49-9.72,42.85-53.66L1482.95,0h65.54l-1.44,158.45c-0.72,64.1-43.93,97.95-108.03,97.95
			c-61.94,0-107.67-28.09-107.67-99.03c0-59.42,0.72-108.39,1.44-157.37H1397.96z"/>
		<path class="st1" d="M1097.64,0h203.82v51.86h-67.34l-2.16,197.34h-64.82l2.16-197.34h-71.66V0z"/>
	</g>
</g>
<g id="_x40_">
	<g>
		<path class="st0" d="M984.85,159.6c-0.2,1.18-0.39,2.56-0.39,4.13c0,2.56,1.77,4.52,5.31,4.52c15.73,0,19.47-17.7,19.47-30.08
			c0-30.67-19.27-45.03-52.7-45.03c-33.03,0-53.48,22.81-53.48,53.09c0,30.28,20.45,53.09,53.09,53.09
			c20.06,0,32.44-4.52,41.88-11.6h18.68c-13.57,18.68-33.03,30.48-60.56,30.48c-44.44,0-74.32-31.07-74.32-71.96
			c0-39.72,32.25-71.96,75.11-71.96c37.56,0,68.82,22.42,68.82,56.63c0,42.47-34.8,53.48-47.58,53.48c-8.45,0-12.78-3.15-14.55-9.63
			h-0.39c-3.34,5.31-10.62,9.63-19.86,9.63c-14.94,0-28.12-12.39-28.12-33.03c0-19.07,15.14-40.31,36.18-40.31
			c8.85,0,16.91,3.34,22.61,11.4l1.77-9.44h18.09L984.85,159.6z M969.12,145.45c0-9.24-5.9-15.53-15.14-15.53
			c-10.81,0-18.68,10.03-18.68,19.86c0,8.85,5.11,15.73,14.35,15.73C961.45,165.5,969.12,156.26,969.12,145.45z"/>
	</g>
</g>
<g id="MLE">
	<g id="Subtitle">
		<path class="st0" d="M13.93,290.59H19l5.8,41.72h0.11l19-41.72h5.4l-1.36,48.45h-4.78c0.57-13.79,1.14-27.51,1.71-41.3h-0.11
			l-18.54,41.3h-4.49l-5.69-41.3h-0.11l-11.15,41.3H0L13.93,290.59z"/>
		<path class="st0" d="M58.86,308.65c5.06-3.78,8.53-5.46,12.51-5.46c3.75,0,6.65,1.68,6.65,7c0,1.4-0.23,3.43-1.08,7.7
			c-0.85,4.34-2.73,14.56-2.73,16.38c0,0.98,0.57,1.54,1.14,1.54c0.63,0,1.42-0.42,2.67-1.4l1.14,2.45
			c-2.79,2.38-4.55,3.15-5.97,3.15c-2.73,0-3.07-2.52-3.07-5.39c-2.28,3.15-4.95,5.39-8.53,5.39c-4.61,0-7.51-3.64-7.51-9.17
			c0-10.64,12-12.81,18.6-13.65c0.4-1.96,0.8-4.83,0.8-6.23c0-2.73-1.42-3.57-3.36-3.57c-2.33,0-6.77,2.45-9.38,4.76L58.86,308.65z
			 M62.96,335.81c2.62,0,4.21-1.33,7.34-5.11c0.4-3.01,1.08-6.72,1.76-10.08c-8.53,1.33-13.42,4.69-13.42,9.8
			C58.64,333.5,60.34,335.81,62.96,335.81z"/>
		<path class="st0" d="M107.09,307.74c-0.97-0.21-1.59-0.35-3.24-0.35c-8.42,0-15.36,7.63-15.36,18.13c0,5.11,1.82,10.29,6.71,10.29
			c3.07,0,5.8-1.4,8.42-3.64l1.82,3.01c-2.67,2.31-6.43,4.83-10.46,4.83c-7.34,0-11.03-6.16-11.03-13.3
			c0-14.91,9.21-23.52,20.02-23.52c1.48,0,2.9,0.21,4.38,0.42L107.09,307.74z"/>
		<path class="st0" d="M117.16,287.09h4.55l-4.38,23.8l0.11,0.14c2.79-3.92,7.34-7.84,11.6-7.84c3.18,0,6.2,1.96,6.2,6.37
			c0,1.96-0.23,3.92-0.68,6.72l-3.87,22.75h-4.55l3.75-21.7c0.57-3.15,0.8-4.76,0.8-6.37c0-2.59-1.42-3.57-3.47-3.57
			c-2.39,0-5.63,2.52-10.29,7.91l-4.15,23.73h-4.55L117.16,287.09z"/>
		<path class="st0" d="M146.79,304.17h4.55l-5.97,34.86h-4.55L146.79,304.17z M149.06,290.59h4.55l-1.02,5.88h-4.55L149.06,290.59z"
			/>
		<path class="st0" d="M161.63,304.17h4.55l-1.42,6.72l0.11,0.14c2.79-3.92,7.34-7.84,11.6-7.84c3.18,0,6.2,1.96,6.2,6.37
			c0,1.96-0.23,3.92-0.68,6.72l-3.87,22.75h-4.55l3.75-21.7c0.57-3.15,0.8-4.76,0.8-6.37c0-2.59-1.42-3.57-3.47-3.57
			c-2.39,0-5.63,2.52-10.29,7.91l-4.15,23.73h-4.55L161.63,304.17z"/>
		<path class="st0" d="M193.14,321.53c-0.23,1.47-0.34,2.66-0.34,3.99c0,5.11,1.82,10.29,7,10.29c3.18,0,6.26-1.89,8.53-4.27
			l1.59,3.36c-2.84,2.59-6.6,5.11-10.64,5.11c-7.34,0-11.03-6.16-11.03-14.91c0-10.01,6.26-21.91,15.24-21.91
			c6.48,0,8.82,6.3,8.82,13.3c0,1.68-0.17,3.36-0.28,5.04H193.14z M208.1,317.75c0.06-0.84,0.11-1.75,0.11-2.66
			c0-4.2-1.02-8.12-5.29-8.12c-4.49,0-7.56,5.95-9.1,10.78H208.1z"/>
		<path class="st0" d="M240.74,290.59h4.78l-7.56,43.83h17.35l-0.8,4.62h-22.12L240.74,290.59z"/>
		<path class="st0" d="M265.82,321.53c-0.23,1.47-0.34,2.66-0.34,3.99c0,5.11,1.82,10.29,7,10.29c3.18,0,6.26-1.89,8.53-4.27
			l1.59,3.36c-2.84,2.59-6.6,5.11-10.64,5.11c-7.34,0-11.03-6.16-11.03-14.91c0-10.01,6.26-21.91,15.24-21.91
			c6.48,0,8.82,6.3,8.82,13.3c0,1.68-0.17,3.36-0.28,5.04H265.82z M280.78,317.75c0.06-0.84,0.11-1.75,0.11-2.66
			c0-4.2-1.02-8.12-5.29-8.12c-4.49,0-7.56,5.95-9.1,10.78H280.78z"/>
		<path class="st0" d="M292.72,308.65c5.06-3.78,8.53-5.46,12.51-5.46c3.75,0,6.65,1.68,6.65,7c0,1.4-0.23,3.43-1.08,7.7
			c-0.85,4.34-2.73,14.56-2.73,16.38c0,0.98,0.57,1.54,1.14,1.54c0.63,0,1.42-0.42,2.67-1.4l1.14,2.45
			c-2.79,2.38-4.55,3.15-5.97,3.15c-2.73,0-3.07-2.52-3.07-5.39c-2.27,3.15-4.95,5.39-8.53,5.39c-4.61,0-7.51-3.64-7.51-9.17
			c0-10.64,12-12.81,18.6-13.65c0.4-1.96,0.8-4.83,0.8-6.23c0-2.73-1.42-3.57-3.36-3.57c-2.33,0-6.77,2.45-9.38,4.76L292.72,308.65z
			 M296.82,335.81c2.62,0,4.21-1.33,7.34-5.11c0.4-3.01,1.08-6.72,1.76-10.08c-8.53,1.33-13.42,4.69-13.42,9.8
			C292.49,333.5,294.2,335.81,296.82,335.81z"/>
		<path class="st0" d="M322.81,304.17h4.32l-1.42,6.09l0.11,0.14c2.5-4.69,4.78-7.21,8.02-7.21c0.91,0,1.88,0.21,2.79,0.49
			l-1.14,5.04c-0.91-0.28-1.82-0.49-2.73-0.49c-2.79,0-5.35,3.08-7.22,7.07l-4.15,23.73h-4.55L322.81,304.17z"/>
		<path class="st0" d="M341.74,304.17h4.55l-1.42,6.72l0.11,0.14c2.79-3.92,7.34-7.84,11.6-7.84c3.18,0,6.2,1.96,6.2,6.37
			c0,1.96-0.23,3.92-0.68,6.72l-3.87,22.75h-4.55l3.75-21.7c0.57-3.15,0.8-4.76,0.8-6.37c0-2.59-1.42-3.57-3.47-3.57
			c-2.39,0-5.63,2.52-10.29,7.91l-4.15,23.73h-4.55L341.74,304.17z"/>
		<path class="st0" d="M374.33,304.17h4.55l-5.97,34.86h-4.55L374.33,304.17z M376.61,290.59h4.55l-1.02,5.88h-4.55L376.61,290.59z"
			/>
		<path class="st0" d="M389.18,304.17h4.55l-1.42,6.72l0.11,0.14c2.79-3.92,7.34-7.84,11.6-7.84c3.18,0,6.2,1.96,6.2,6.37
			c0,1.96-0.23,3.92-0.68,6.72l-3.87,22.75h-4.55l3.75-21.7c0.57-3.15,0.8-4.76,0.8-6.37c0-2.59-1.42-3.57-3.47-3.57
			c-2.39,0-5.63,2.52-10.29,7.91l-4.15,23.73h-4.55L389.18,304.17z"/>
		<path class="st0" d="M430.81,334.34c5.06,1.75,7.56,5.11,7.56,9.45c0,5.88-5.97,11.76-14.05,11.76c-4.72,0-11.43-2.66-11.43-9.03
			c0-4.83,2.16-7.77,8.42-10.85v-0.14c-6.09-1.82-6.54-3.22-6.54-4.41c0-1.54,0.68-3.08,7.62-6.72c-2.33-1.75-3.7-4.55-3.7-8.12
			c0-7.42,5.01-13.09,10.81-13.09c1.82,0,3.64,0.63,5.23,1.4l8.36-0.42l-0.57,3.5l-5.86-0.28c1.48,1.82,1.99,4.34,1.99,6.93
			c0,6.23-4.44,12.25-10.52,12.25c-1.42,0-2.62-0.21-3.75-0.77c-3.58,2.03-4.38,2.94-4.38,3.78c0,0.7,0.28,1.12,3.75,2.31
			L430.81,334.34z M424.1,336.58c-5.23,3.22-7.45,5.81-7.45,9.24c0,3.15,3.13,6.37,7.96,6.37c5.74,0,9.21-4.13,9.21-8.05
			c0-2.45-0.85-4.13-3.81-5.25L424.1,336.58z M428.02,323.21c4.44,0,6.54-5.18,6.54-10.15c0-4.06-1.99-6.51-5.23-6.51
			c-3.92,0-6.54,5.6-6.54,9.8C422.79,320.62,424.49,323.21,428.02,323.21z"/>
		<path class="st0" d="M466.01,304.17h4.55l-5.97,34.86h-4.55L466.01,304.17z M468.29,290.59h4.55l-1.02,5.88h-4.55L468.29,290.59z"
			/>
		<path class="st0" d="M480.85,304.17h4.55l-1.42,6.72l0.11,0.14c2.79-3.92,7.34-7.84,11.6-7.84c3.18,0,6.2,1.96,6.2,6.37
			c0,1.96-0.23,3.92-0.68,6.72l-3.87,22.75h-4.55l3.75-21.7c0.57-3.15,0.8-4.76,0.8-6.37c0-2.59-1.42-3.57-3.47-3.57
			c-2.39,0-5.63,2.52-10.29,7.91l-4.15,23.73h-4.55L480.85,304.17z"/>
		<path class="st0" d="M531.47,290.59h19.17l-0.74,4.2h-14.33l-2.96,17.29h13.93l-0.74,4.2h-13.93l-3.19,18.55h16.66l-0.74,4.2
			h-21.44L531.47,290.59z"/>
		<path class="st0" d="M556.72,304.17h4.55l-1.42,6.72l0.11,0.14c2.79-3.92,7.34-7.84,11.6-7.84c3.18,0,6.2,1.96,6.2,6.37
			c0,1.96-0.23,3.92-0.68,6.72l-3.87,22.75h-4.55l3.75-21.7c0.57-3.15,0.8-4.76,0.8-6.37c0-2.59-1.42-3.57-3.47-3.57
			c-2.39,0-5.63,2.52-10.29,7.91l-4.15,23.73h-4.55L556.72,304.17z"/>
		<path class="st0" d="M598.35,334.34c5.06,1.75,7.56,5.11,7.56,9.45c0,5.88-5.97,11.76-14.05,11.76c-4.72,0-11.43-2.66-11.43-9.03
			c0-4.83,2.16-7.77,8.42-10.85v-0.14c-6.09-1.82-6.54-3.22-6.54-4.41c0-1.54,0.68-3.08,7.62-6.72c-2.33-1.75-3.7-4.55-3.7-8.12
			c0-7.42,5.01-13.09,10.81-13.09c1.82,0,3.64,0.63,5.23,1.4l8.36-0.42l-0.57,3.5l-5.86-0.28c1.48,1.82,1.99,4.34,1.99,6.93
			c0,6.23-4.44,12.25-10.52,12.25c-1.42,0-2.62-0.21-3.75-0.77c-3.58,2.03-4.38,2.94-4.38,3.78c0,0.7,0.28,1.12,3.75,2.31
			L598.35,334.34z M591.64,336.58c-5.23,3.22-7.45,5.81-7.45,9.24c0,3.15,3.13,6.37,7.96,6.37c5.74,0,9.21-4.13,9.21-8.05
			c0-2.45-0.85-4.13-3.81-5.25L591.64,336.58z M595.57,323.21c4.44,0,6.54-5.18,6.54-10.15c0-4.06-1.99-6.51-5.23-6.51
			c-3.92,0-6.54,5.6-6.54,9.8C590.33,320.62,592.04,323.21,595.57,323.21z"/>
		<path class="st0" d="M617.75,304.17h4.55l-5.97,34.86h-4.55L617.75,304.17z M620.02,290.59h4.55l-1.02,5.88H619L620.02,290.59z"/>
		<path class="st0" d="M632.59,304.17h4.55l-1.42,6.72l0.11,0.14c2.79-3.92,7.34-7.84,11.6-7.84c3.18,0,6.2,1.96,6.2,6.37
			c0,1.96-0.23,3.92-0.68,6.72l-3.87,22.75h-4.55l3.75-21.7c0.57-3.15,0.8-4.76,0.8-6.37c0-2.59-1.42-3.57-3.47-3.57
			c-2.39,0-5.63,2.52-10.29,7.91l-4.15,23.73h-4.55L632.59,304.17z"/>
		<path class="st0" d="M664.1,321.53c-0.23,1.47-0.34,2.66-0.34,3.99c0,5.11,1.82,10.29,7,10.29c3.18,0,6.26-1.89,8.53-4.27
			l1.59,3.36c-2.84,2.59-6.6,5.11-10.64,5.11c-7.34,0-11.03-6.16-11.03-14.91c0-10.01,6.26-21.91,15.24-21.91
			c6.48,0,8.82,6.3,8.82,13.3c0,1.68-0.17,3.36-0.28,5.04H664.1z M679.06,317.75c0.06-0.84,0.11-1.75,0.11-2.66
			c0-4.2-1.02-8.12-5.29-8.12c-4.49,0-7.56,5.95-9.1,10.78H679.06z"/>
		<path class="st0" d="M692.53,321.53c-0.23,1.47-0.34,2.66-0.34,3.99c0,5.11,1.82,10.29,7,10.29c3.19,0,6.26-1.89,8.53-4.27
			l1.59,3.36c-2.84,2.59-6.6,5.11-10.64,5.11c-7.34,0-11.03-6.16-11.03-14.91c0-10.01,6.26-21.91,15.24-21.91
			c6.48,0,8.82,6.3,8.82,13.3c0,1.68-0.17,3.36-0.28,5.04H692.53z M707.49,317.75c0.06-0.84,0.11-1.75,0.11-2.66
			c0-4.2-1.02-8.12-5.29-8.12c-4.49,0-7.56,5.95-9.1,10.78H707.49z"/>
		<path class="st0" d="M721.08,304.17h4.32l-1.42,6.09l0.11,0.14c2.5-4.69,4.78-7.21,8.02-7.21c0.91,0,1.88,0.21,2.79,0.49
			l-1.14,5.04c-0.91-0.28-1.82-0.49-2.73-0.49c-2.79,0-5.35,3.08-7.22,7.07l-4.15,23.73h-4.55L721.08,304.17z"/>
		<path class="st0" d="M740.99,304.17h4.55l-5.97,34.86h-4.55L740.99,304.17z M743.26,290.59h4.55l-1.02,5.88h-4.55L743.26,290.59z"
			/>
		<path class="st0" d="M755.83,304.17h4.55l-1.42,6.72l0.11,0.14c2.79-3.92,7.34-7.84,11.6-7.84c3.19,0,6.2,1.96,6.2,6.37
			c0,1.96-0.23,3.92-0.68,6.72l-3.87,22.75h-4.55l3.75-21.7c0.57-3.15,0.8-4.76,0.8-6.37c0-2.59-1.42-3.57-3.47-3.57
			c-2.39,0-5.63,2.52-10.29,7.91l-4.15,23.73h-4.55L755.83,304.17z"/>
		<path class="st0" d="M797.46,334.34c5.06,1.75,7.56,5.11,7.56,9.45c0,5.88-5.97,11.76-14.05,11.76c-4.72,0-11.43-2.66-11.43-9.03
			c0-4.83,2.16-7.77,8.42-10.85v-0.14c-6.09-1.82-6.54-3.22-6.54-4.41c0-1.54,0.68-3.08,7.62-6.72c-2.33-1.75-3.7-4.55-3.7-8.12
			c0-7.42,5-13.09,10.81-13.09c1.82,0,3.64,0.63,5.23,1.4l8.36-0.42l-0.57,3.5l-5.86-0.28c1.48,1.82,1.99,4.34,1.99,6.93
			c0,6.23-4.44,12.25-10.52,12.25c-1.42,0-2.62-0.21-3.75-0.77c-3.58,2.03-4.38,2.94-4.38,3.78c0,0.7,0.28,1.12,3.75,2.31
			L797.46,334.34z M790.75,336.58c-5.23,3.22-7.45,5.81-7.45,9.24c0,3.15,3.13,6.37,7.96,6.37c5.74,0,9.21-4.13,9.21-8.05
			c0-2.45-0.85-4.13-3.81-5.25L790.75,336.58z M794.68,323.21c4.44,0,6.54-5.18,6.54-10.15c0-4.06-1.99-6.51-5.23-6.51
			c-3.92,0-6.54,5.6-6.54,9.8C789.44,320.62,791.15,323.21,794.68,323.21z"/>
	</g>
	<g>
		<path class="st1" d="M693.25,122.37c-1.12,0-2.23,0.21-3.29,0.62c-4.62,1.81-6.9,7.05-5.09,11.66c1.36,3.47,4.65,5.71,8.38,5.71
			c1.12,0,2.23-0.21,3.29-0.62c4.62-1.81,6.9-7.05,5.09-11.66C700.26,124.61,696.97,122.37,693.25,122.37z"/>
		<path id="L_x2B_Comp" class="st1" d="M636.12,89.9c-5.19,0-9.76,2.64-12.45,6.64l-33.24-16.67c0.56-1.57,0.88-3.26,0.88-5.02
			c0-8.28-6.72-15-15-15c-5.21,0-9.79,2.65-12.48,6.68l-33.69-16.89c0.46-1.44,0.71-2.97,0.71-4.56c0-8.28-6.72-15-15-15
			c-5.03,0-9.47,2.48-12.19,6.28l-31.89-15.99c0.63-1.66,1-3.46,1-5.34c0-8.24-6.64-14.91-14.86-14.99l0-0.01h-64.8l-2.16,249.12
			H567l1.08-54h-97.31c-0.02-1.7-0.33-3.33-0.87-4.85l34.15-17.26c2.63,4.33,7.38,7.23,12.81,7.23c8.28,0,15-6.72,15-15
			c0-2.03-0.41-3.95-1.13-5.72l32.95-16.66c2.66,4.18,7.32,6.95,12.64,6.95c8.28,0,15-6.72,15-15c0-1.91-0.37-3.73-1.02-5.41
			l33.06-16.71c2.64,4.3,7.37,7.17,12.78,7.17c8.28,0,15-6.72,15-15C651.12,96.61,644.41,89.9,636.12,89.9z M576.31,62.35
			c6.9,0,12.5,5.6,12.5,12.5c0,1.36-0.22,2.67-0.63,3.89l-22.09-11.08C568.35,64.46,572.08,62.35,576.31,62.35z M563.81,134.85
			c0-1.56,0.3-3.04,0.82-4.42l8.6,4.27l-8.67,4.38C564.08,137.76,563.81,136.34,563.81,134.85z M577.16,132.72l-6.2-9.15
			c1.62-0.77,3.43-1.22,5.35-1.22c4.33,0,8.14,2.2,10.39,5.54L577.16,132.72z M572.29,130.89l-6.29-3.12
			c0.67-0.98,1.48-1.86,2.4-2.61L572.29,130.89z M563.75,126.66l-15.13-7.5l7.75-11.76l10.64,15.7
			C565.74,124.1,564.64,125.3,563.75,126.66z M545.91,117.81l-15.53-7.7c0.62-1.64,0.97-3.41,0.97-5.26c0-1.58-0.25-3.11-0.7-4.54
			l15.66-7.76l8.25,12.17L545.91,117.81z M527.04,158.05l-6.1,3.09l3.71-5.63C525.56,156.24,526.36,157.1,527.04,158.05z
			 M504.35,165.28c0-1.43,0.25-2.8,0.7-4.08l8,3.93l-8.06,4.07C504.58,167.97,504.35,166.65,504.35,165.28z M468.8,143.37
			l15.13,7.44l-20.76,31.48c-2.14-1.22-4.61-1.94-7.25-1.96l0.33-30.1C461.52,150.21,466.14,147.48,468.8,143.37z M470.17,140.7
			c0.67-1.7,1.04-3.54,1.04-5.47c0-1.76-0.32-3.45-0.88-5.02l15.82-7.85l8.24,12.57l-8.8,13.35L470.17,140.7z M457.25,60.16
			l0.33-30.13c0.06,0,0.12,0.01,0.19,0.01c2.57,0,4.99-0.65,7.11-1.79l20.68,31.2l-15.89,8.08
			C467.14,63.25,462.55,60.33,457.25,60.16z M487.23,61.96l8.1,12.23l-9.29,13.94l-15.3-7.59c0.65-1.68,1.02-3.5,1.02-5.41
			c0-1.71-0.3-3.35-0.83-4.88L487.23,61.96z M503.35,45.08c0-1.78,0.38-3.46,1.04-4.99l9.68,4.86l-9.76,4.96
			C503.69,48.42,503.35,46.79,503.35,45.08z M524.11,54.45l-4.59-6.78l7.18,3.6C526.01,52.47,525.14,53.54,524.11,54.45z
			 M528.85,104.85c0,1.46-0.26,2.85-0.72,4.15l-7.5-3.72l7.74-3.84C528.67,102.52,528.85,103.66,528.85,104.85z M503.85,104.85
			c0-1.47,0.27-2.87,0.73-4.18l9.3,4.61l-9.03,4.48C504.21,108.24,503.85,106.59,503.85,104.85z M505.91,97.98
			c0.82-1.25,1.87-2.33,3.07-3.21l4.67,7.05L505.91,97.98z M503.67,96.86l-14.91-7.39l8.38-12.57l10.46,15.78
			C506.03,93.81,504.7,95.23,503.67,96.86z M502.33,99.55c-0.62,1.65-0.98,3.43-0.98,5.3c0,2.14,0.46,4.17,1.26,6.01l-15.4,7.64
			l-8.83-13.47l8.69-13.04L502.33,99.55z M504.09,113.47c0.74,1.05,1.61,2,2.59,2.83l-10.48,15.9l-7.33-11.18L504.09,113.47z
			 M506.37,112.35l4.35-2.16l-2.64,4.01C507.44,113.64,506.87,113.02,506.37,112.35z M516.06,107.54l1.2-0.59l9.55,4.74
			c-2.23,3.41-6.08,5.66-10.46,5.66c-2.1,0-4.07-0.52-5.81-1.44L516.06,107.54z M518.14,103.16l-6.54-9.87
			c1.47-0.6,3.07-0.94,4.75-0.94c4.65,0,8.7,2.55,10.86,6.32L518.14,103.16z M516.35,89.85c-2.19,0-4.27,0.48-6.15,1.33
			l-11.26-16.98l10.4-15.61c1.97,0.95,4.17,1.5,6.51,1.5c2.61,0,5.07-0.67,7.21-1.84l21.55,31.8l-15.15,7.51
			C526.89,92.96,521.98,89.85,516.35,89.85z M515.85,57.58c-1.82,0-3.55-0.4-5.11-1.1l5.52-8.27l5.38,7.94
			C519.91,57.06,517.94,57.58,515.85,57.58z M511.82,49.46l-3.65,5.48c-0.89-0.7-1.68-1.51-2.36-2.42L511.82,49.46z M506.78,57.02
			l-9.64,14.46l-7.22-10.89l13.63-6.93C504.45,54.94,505.54,56.07,506.78,57.02z M469.26,75.13c0,1.51-0.28,2.95-0.77,4.29
			l-7.9-3.92l8.1-4.12C469.06,72.57,469.26,73.83,469.26,75.13z M467.14,82.1c-0.61,0.91-1.35,1.73-2.18,2.45l-3.43-5.23
			L467.14,82.1z M469.38,83.22l14.98,7.43l-7.77,11.66l-10.25-15.63C467.53,85.68,468.55,84.51,469.38,83.22z M474.79,105.01
			l-11.38,17.07c-2.04-1.11-4.35-1.78-6.82-1.84l0.33-30.12c2.51-0.03,4.87-0.67,6.94-1.79L474.79,105.01z M476.57,107.74l7.93,12.1
			l-15.45,7.66c-0.85-1.41-1.91-2.67-3.17-3.73L476.57,107.74z M466.81,128.61l-6.2,3.07l3.88-5.82
			C465.39,126.67,466.17,127.59,466.81,128.61z M468.09,131.33c0.4,1.23,0.63,2.54,0.63,3.9c0,1.54-0.29,3-0.8,4.36l-8.28-4.07
			L468.09,131.33z M496.19,137.67l10.74,16.38c-1.1,0.97-2.05,2.09-2.82,3.34l-15.8-7.77L496.19,137.67z M508.32,156.16l3.19,4.87
			l-5.15-2.53C506.91,157.64,507.57,156.86,508.32,156.16z M516.25,162.79l-5.52-8.41c1.81-1.02,3.89-1.6,6.11-1.6
			c1.87,0,3.65,0.42,5.24,1.16L516.25,162.79z M516.85,150.28c-2.73,0-5.28,0.74-7.48,2.01l-11.37-17.35l11.16-16.93
			c2.14,1.17,4.59,1.84,7.19,1.84c5.36,0,10.05-2.82,12.7-7.05l15.2,7.53l-20.77,31.5C521.48,150.85,519.23,150.28,516.85,150.28z
			 M549.02,91.2l15.18-7.53c0.72,0.98,1.54,1.88,2.47,2.66L556.34,102L549.02,91.2z M566.47,82.54l4.01-1.99l-2.42,3.67
			C567.48,83.71,566.94,83.15,566.47,82.54z M563.81,74.85c0-1.6,0.31-3.13,0.86-4.54l9.44,4.73l-0.35,0.54l-8.84,4.38
			C564.21,78.41,563.81,76.68,563.81,74.85z M575.81,77.91l2.02-1l9.08,4.55c-2.21,3.53-6.12,5.89-10.6,5.89
			c-2.09,0-4.05-0.52-5.78-1.42L575.81,77.91z M562.42,69.19c-0.71,1.75-1.12,3.66-1.12,5.67c0,2.22,0.5,4.33,1.36,6.23l-15.35,7.61
			l-21.79-32.15c1.37-1.16,2.53-2.56,3.41-4.14L562.42,69.19z M515.85,32.58c6.9,0,12.5,5.6,12.5,12.5c0,1.19-0.18,2.33-0.49,3.42
			l-21.94-11C508.21,34.52,511.8,32.58,515.85,32.58z M502.16,38.97c-0.84,1.87-1.31,3.93-1.31,6.11c0,2.12,0.44,4.13,1.24,5.96
			l-13.83,7.03l-20.89-31.51c1.2-1,2.23-2.18,3.06-3.5L502.16,38.97z M465.97,24.46l-3.61-5.44l5.83,2.92
			C467.57,22.88,466.82,23.72,465.97,24.46z M457.77,2.54c6.9,0,12.5,5.6,12.5,12.5c0,1.48-0.27,2.9-0.74,4.21l-11.11-5.57
			l-1.3,2.59L457,16.35l6.49,9.79c-1.71,0.88-3.66,1.39-5.72,1.39c-6.9,0-12.5-5.6-12.5-12.5S450.87,2.54,457.77,2.54z
			 M456.76,62.63c4.53,0,8.49,2.42,10.68,6.03l-10.87,5.53l0.68,1.34l-1.25,0.82l6.49,9.89c-1.71,0.88-3.66,1.39-5.72,1.39
			c-6.9,0-12.5-5.6-12.5-12.5C444.26,68.23,449.86,62.63,456.76,62.63z M456.22,122.73c2.1,0,4.07,0.52,5.8,1.43L455,134.69
			l1.25,0.83l-0.66,1.35l10.96,5.39c-2.25,3.3-6.04,5.47-10.33,5.47c-6.9,0-12.5-5.6-12.5-12.5S449.31,122.73,456.22,122.73z
			 M468.27,195.32c0,6.9-5.6,12.5-12.5,12.5c-6.9,0-12.5-5.6-12.5-12.5s5.6-12.5,12.5-12.5c2.19,0,4.24,0.57,6.03,1.55L455,194.7
			l1.25,0.83l0.68,1.34l10.72-5.42C468.05,192.66,468.27,193.97,468.27,195.32z M466.37,188.72l-5.77,2.92l3.63-5.5
			C465.06,186.9,465.78,187.77,466.37,188.72z M468.6,187.6c-0.81-1.34-1.81-2.54-2.98-3.56l21.03-31.89l16.14,7.94
			c-0.6,1.62-0.94,3.36-0.94,5.19c0,1.78,0.33,3.48,0.89,5.06L468.6,187.6z M529.35,165.28c0,6.9-5.6,12.5-12.5,12.5
			c-4.46,0-8.37-2.34-10.58-5.86l10.14-5.13l0.17,0.08l0.11-0.22l0.71-0.36l0.1,0.06l0.11-0.17l10.86-5.49
			C529.03,162.11,529.35,163.66,529.35,165.28z M529.3,156.91c-0.9-1.33-2.01-2.5-3.28-3.49l20.93-31.75l15.42,7.64
			c-0.68,1.71-1.07,3.58-1.07,5.53c0,1.89,0.37,3.7,1.01,5.37L529.3,156.91z M588.81,134.85c0,6.9-5.6,12.5-12.5,12.5
			c-4.34,0-8.17-2.22-10.41-5.58l22.14-11.19C588.53,131.91,588.81,133.35,588.81,134.85z M588.93,126.77
			c-2.67-4.15-7.32-6.91-12.62-6.91c-2.44,0-4.73,0.59-6.77,1.63l-11.38-16.79l10.98-16.65c2.13,1.16,4.57,1.82,7.17,1.82
			c5.45,0,10.21-2.92,12.84-7.27l33.11,16.6c-0.73,1.76-1.13,3.69-1.13,5.71c0,1.8,0.33,3.52,0.92,5.13L588.93,126.77z
			 M623.62,104.9c0-1.62,0.32-3.16,0.88-4.59l8.41,4.22l-8.63,4.36C623.86,107.64,623.62,106.3,623.62,104.9z M636.12,117.4
			c-4.44,0-8.32-2.32-10.54-5.8l11.34-5.73l-0.68-1.34l0.67-1.34l-10.99-5.51c2.27-3.19,5.98-5.28,10.19-5.28
			c6.9,0,12.5,5.6,12.5,12.5S643.03,117.4,636.12,117.4z"/>
		<path id="M" class="st1" d="M59.76,0.04h81.36l36,182.16h0.72L222.48,0.04h81.36l49.32,249.12h-64.8L261,71.32h-0.72L216,249.16
			h-74.52l-41.4-177.84h-0.72l-36,177.84H0L59.76,0.04z"/>
		<path id="Gear_Big" class="st0" d="M664.01,114.82l10.78-1.25l0.87-12.85l-10.52-2.69c-0.46-2.09-1.15-4.15-2.07-6.13l6.75-8.52
			l-8.47-9.7l-9.35,5.54c-1.84-1.18-3.79-2.14-5.8-2.88l-1.25-10.79l-12.85-0.87l-2.69,10.51c-2.1,0.46-4.16,1.15-6.15,2.07
			l-8.5-6.74l-9.7,8.47l5.52,9.32c-1.19,1.85-2.16,3.8-2.9,5.83l-10.76,1.25l-0.87,12.85l10.48,2.68c0.46,2.11,1.16,4.18,2.08,6.18
			l-6.72,8.48l8.47,9.7l9.31-5.51c1.85,1.19,3.81,2.16,5.84,2.9l1.25,10.75l12.85,0.87l2.69-10.49c2.11-0.46,4.17-1.16,6.16-2.09
			l8.49,6.73l9.7-8.47l-5.53-9.34C662.3,118.79,663.27,116.84,664.01,114.82z M630.32,121.53c-9.15-3.12-14.03-13.07-10.91-22.21
			s13.07-14.03,22.21-10.91c9.15,3.12,14.03,13.07,10.91,22.21S639.47,124.65,630.32,121.53z"/>
		<g>
			<path class="st1" d="M663.46,120.65l2.65,4.48l3.93-9l-4.61,0.53C664.87,118.04,664.21,119.37,663.46,120.65z"/>
			<path class="st1" d="M701.66,157.85l-3.96,1.55l-3.91-5.71c-0.18,0-0.35,0.01-0.53,0.01c-0.47,0-0.93-0.02-1.4-0.04l-4.12,5.56
				l-10.98-4.79l1.28-6.82c-0.46-0.44-0.91-0.9-1.33-1.38l-6.86,1.02l-4.38-11.15l5.72-3.92c-0.02-0.64,0-1.28,0.04-1.91l-3.72-2.75
				l1.69,2.86l-12.21,10.66l-8.85-7.01c-1.38,0.58-2.79,1.06-4.23,1.43l-2.8,10.93l-4.69-0.32l-0.89,103.08h172.08v-51.84H701.07
				L701.66,157.85z"/>
			<path class="st1" d="M809.79,51.88V0.04H637.71l-0.55,62.98l9.57,0.65l1.3,11.24c1.36,0.56,2.69,1.22,3.97,1.97l9.74-5.77
				l10.66,12.21l-7.03,8.88c0.57,1.37,1.05,2.77,1.42,4.2l10.97,2.81l-1.1,16.16l-3.2,0.37l3.79,0.71c0.44-0.47,0.91-0.92,1.39-1.34
				l-1.02-6.84l11.15-4.38l3.9,5.7c0.19-0.01,0.39-0.01,0.58-0.01c0.46,0,0.91,0.01,1.37,0.04l4.11-5.55l10.98,4.79l-1.27,6.77
				c0.48,0.45,0.93,0.92,1.37,1.42l6.81-1.01l4.37,11.15l-5.68,3.89c0.02,0.66,0,1.31-0.04,1.97l5.54,4.1l-4.79,10.97l-6.78-1.27
				c-0.45,0.47-0.92,0.92-1.41,1.35l0.18,1.24h100.69V99.76H702.15l0.72-47.88H809.79z"/>
		</g>
		<path id="Gear_Small" class="st2" d="M698.46,156.96l8.18-3.21l-0.95-6.36c1.03-0.82,1.98-1.72,2.82-2.71l6.32,1.18l3.51-8.06
			l-5.16-3.82c0.15-1.29,0.18-2.6,0.08-3.92l5.29-3.62l-3.21-8.18l-6.35,0.94c-0.82-1.04-1.73-1.98-2.72-2.82l1.18-6.31l-8.06-3.51
			l-3.83,5.17c-1.29-0.15-2.59-0.18-3.91-0.07l-3.63-5.31l-8.18,3.21l0.95,6.38c-1.03,0.81-1.96,1.72-2.8,2.7l-6.34-1.19l-3.51,8.06
			l5.19,3.85c-0.15,1.27-0.18,2.57-0.07,3.87l-5.33,3.65l3.21,8.18l6.39-0.95c0.81,1.02,1.71,1.95,2.69,2.79l-1.19,6.35l8.06,3.51
			l3.84-5.19c1.28,0.15,2.58,0.18,3.89,0.08L698.46,156.96z M682.95,135.41c-2.23-5.69,0.57-12.11,6.26-14.35
			c5.69-2.23,12.11,0.57,14.35,6.26c2.23,5.69-0.57,12.11-6.26,14.35C691.6,143.9,685.18,141.1,682.95,135.41z"/>
		<g id="Blue_Balls">
			<circle class="st2" cx="457.77" cy="15.04" r="10"/>
			<circle class="st2" cx="456.76" cy="75.13" r="10"/>
			<circle class="st2" cx="456.22" cy="135.23" r="10"/>
			<circle class="st2" cx="455.77" cy="195.32" r="10"/>
			<circle class="st2" cx="516.35" cy="104.85" r="10"/>
			<circle class="st2" cx="515.85" cy="45.08" r="10"/>
			<circle class="st2" cx="516.85" cy="165.28" r="10"/>
			<circle class="st2" cx="576.31" cy="74.85" r="10"/>
			<circle class="st2" cx="576.31" cy="134.85" r="10"/>
			<circle class="st2" cx="636.12" cy="104.9" r="10"/>
		</g>
	</g>
	<g>
	</g>
	<g>
	</g>
	<g>
	</g>
	<g>
	</g>
	<g>
	</g>
	<g>
	</g>
	<g>
	</g>
	<g>
	</g>
	<g>
	</g>
	<g>
	</g>
	<g>
	</g>
	<g>
	</g>
	<g>
	</g>
	<g>
	</g>
	<g>
	</g>
</g>
</svg>
